<svg width="33" height="33" viewBox="0 0 33 33" fill="none" xmlns="http://www.w3.org/2000/svg">
<rect x="0.889893" width="31.4401" height="32.9771" rx="5" fill="#0C3A2D"/>
<g clip-path="url(#clip0_409_22919)">
<path d="M23.7836 16.5745C23.6528 16.4195 20.5284 12.7847 16.5342 12.7847C12.5399 12.7847 9.41564 16.4195 9.2846 16.5747C9.0275 16.8785 9.0275 17.3194 9.28475 17.6236C9.41564 17.7785 12.5399 21.4132 16.5342 21.4132C20.5284 21.4132 23.6528 17.7782 23.7837 17.6233C24.0408 17.3194 24.0408 16.8785 23.7836 16.5745ZM17.7543 14.9682C18.0228 14.8208 18.3974 14.9899 18.5907 15.3457C18.784 15.7017 18.7229 16.1098 18.4544 16.2571C18.1859 16.4046 17.8112 16.2354 17.6178 15.8796C17.4246 15.5236 17.4855 15.1155 17.7543 14.9682ZM16.5342 20.0963C13.7441 20.0963 11.3961 17.9425 10.5834 17.099C11.1322 16.5292 12.3817 15.3626 13.9943 14.6649C13.6797 15.1459 13.4953 15.7207 13.4953 16.3393C13.4953 18.0263 14.8558 19.3938 16.5341 19.3938C18.2124 19.3938 19.573 18.0263 19.573 16.3393C19.573 15.7207 19.3887 15.1459 19.0742 14.6649C20.6868 15.3627 21.9361 16.5292 22.4849 17.099C21.6722 17.9429 19.3242 20.0963 16.5342 20.0963Z" fill="white"/>
</g>
<defs>
<clipPath id="clip0_409_22919">
<rect width="14.8847" height="14.9618" fill="white" transform="translate(9.0918 9.61816)"/>
</clipPath>
</defs>
</svg>
